<svg width="59" height="30" viewBox="0 0 59 30" fill="none" xmlns="http://www.w3.org/2000/svg">
<path d="M6.51251 0.259766H0V29.7396H6.51251V0.259766Z" fill="#0157FF"/>
<path d="M37.1172 27.2692V27.7283L37.1215 27.721V22.0859L37.1172 27.2692Z" fill="#0157FF"/>
<path d="M44.4926 17.0803L41.7775 17.9592L41.7818 17.9664L45.0025 16.9277L44.4926 17.0803ZM37.1172 27.7272L37.1215 27.7199V27.2609L37.1172 27.2681V27.7272Z" fill="#0157FF"/>
<path d="M50.9489 19.5618L57.9307 10.3197H50.715L47.0499 15.5058L43.4239 10.3197H35.9758L41.778 17.9595L44.4931 17.0806L45.0044 16.928L37.1235 27.7202L37.1191 27.7275V27.2685L37.1235 22.0852L33.0966 20.7777L37.1235 19.4703V17.7285C37.1235 16.7682 36.9985 15.8051 36.753 14.8449C36.5046 13.8817 36.1022 13.029 35.5444 12.2895C34.9836 11.5472 34.25 10.9429 33.3406 10.4766C32.4298 10.0073 31.3257 9.77344 30.027 9.77344C29.3486 9.77344 28.7123 9.86496 28.1152 10.0465C27.5152 10.2281 26.9661 10.4635 26.4577 10.7497C25.9521 11.0344 25.509 11.3816 25.1328 11.7811C24.7551 12.1864 24.45 12.5946 24.2161 13.0101H24.1377V10.3197H17.9375V29.7395H24.3716V19.2103C24.3716 18.6655 24.4427 18.1396 24.5851 17.6312C24.7275 17.1256 24.9439 16.6782 25.2287 16.2874C25.5163 15.8966 25.8722 15.5916 26.3022 15.3707C26.7293 15.1499 27.2305 15.0395 27.8029 15.0395C28.3752 15.0395 28.8488 15.1499 29.2251 15.3707C29.6013 15.5916 29.8962 15.8923 30.1025 16.2671C30.3117 16.6433 30.4613 17.0806 30.5514 17.5745C30.6429 18.0684 30.6894 18.587 30.6894 19.1347V29.7395H42.6438L46.9336 23.7718L51.1073 29.7395H58.6323L50.9489 19.5618ZM41.1591 23.4013L42.6946 21.308L45.0204 24.6594L41.1591 23.4013Z" fill="#0157FF"/>
<path d="M15.4773 10.3203H8.96484V29.7402H15.4773V10.3203Z" fill="#0157FF"/>
<path d="M45.0038 16.9277L41.7832 17.9664L41.7773 17.9592L44.4925 17.0803L45.0038 16.9277Z" fill="#0157FF"/>
<path d="M37.123 22.0859V27.721L37.1172 27.7283V27.2692L37.123 22.0859Z" fill="#0157FF"/>
</svg>
